<svg xmlns="http://www.w3.org/2000/svg" width="28" height="28" viewBox="0 0 28 28">
  <path d="M13.2869374,0.851253018 C5.97195534,1.04926523 0.149263172,7.04417721 0.164464742,14.361823 C0.164464742,19.1806259 2.73498073,23.633469 6.90815321,26.0429282 C11.0813257,28.4523873 16.2229439,28.4523873 20.3961164,26.0429282 C24.5692889,23.633469 27.1398043,19.1806259 27.1398043,14.361823 C27.1473661,10.7165018 25.6790721,7.22333967 23.0693977,4.67814351 C20.4597232,2.13294735 16.9309282,0.752485626 13.2869374,0.851253018 L13.2869374,0.851253018 Z M13.6521763,2.10078201 L13.6521763,26.6228407 C6.92303457,26.5631445 1.49943574,21.0912179 1.49943574,14.3618114 C1.49943574,7.63240483 6.92303457,2.16047823 13.6521763,2.10078201 L13.6521763,2.10078201 Z"/>
</svg>
